<svg width="13" height="14" viewBox="0 0 13 14" fill="none" xmlns="http://www.w3.org/2000/svg">
<path fill-rule="evenodd" clip-rule="evenodd" d="M11.9286 3.46802L11.8353 3.30135C11.7149 3.09981 11.5451 2.93231 11.342 2.81469L6.86864 0.234687C6.66611 0.117187 6.43617 0.0551008 6.20197 0.0546875H6.00864C5.77444 0.0551008 5.54451 0.117187 5.34197 0.234687L0.868642 2.82135C0.666622 2.93819 0.498816 3.106 0.381976 3.30802L0.288642 3.47469C0.171143 3.67725 0.109056 3.90718 0.108643 4.14135V9.30802C0.109056 9.54222 0.171143 9.77215 0.288642 9.97469L0.381976 10.1414C0.501836 10.341 0.668969 10.5082 0.868642 10.628L5.34864 13.208C5.55017 13.328 5.78077 13.3902 6.01531 13.388H6.20197C6.43617 13.3876 6.66611 13.3256 6.86864 13.208L11.342 10.6214C11.546 10.5072 11.7144 10.3387 11.8286 10.1347L11.9286 9.96802C12.0447 9.76489 12.1067 9.53535 12.1086 9.30135V4.13469C12.1082 3.90051 12.0462 3.67058 11.9286 3.46802ZM6.00864 1.38802H6.20197L10.1086 3.64135L6.10864 5.94802L2.10864 3.64135L6.00864 1.38802ZM6.77531 11.7214L10.6753 9.46802L10.7753 9.30135V4.79469L6.77531 7.10802V11.7214Z" fill="black"/>
</svg>
